<?xml version="1.0" encoding="iso-8859-1"?>
<!-- Generator: Adobe Illustrator 16.0.0, SVG Export Plug-In . SVG Version: 6.00 Build 0)  -->
<!DOCTYPE svg PUBLIC "-//W3C//DTD SVG 1.1//EN" "http://www.w3.org/Graphics/SVG/1.1/DTD/svg11.dtd">
<svg xmlns="http://www.w3.org/2000/svg" xmlns:xlink="http://www.w3.org/1999/xlink" version="1.1" id="Capa_1" x="0px" y="0px" width="512px" height="512px" viewBox="0 0 94 94" style="enable-background:new 0 0 94 94;" xml:space="preserve">
<g>
	<path d="M89,0H5C2.238,0,0,2.238,0,5v84c0,2.762,2.238,5,5,5h84c2.762,0,5-2.238,5-5V5C94,2.238,91.762,0,89,0z M83.857,44.442   c-1.033,4.986-3.188,8.778-7.231,12.736c-5.135,4.771-11.776,9.543-25.375,7.463c-1.041-0.297-2.138-0.604-2.438-0.681   c-0.541-0.146-0.541-0.138-0.641,5.749c-0.093,5.63-0.128,5.979-0.785,7.867c-1.679,4.822-4.466,7.283-9.203,8.128   c-2.117,0.378-5.04,0.425-6.926,0.104c-2.719-0.457-5.997-1.738-6.76-2.826l0.008-11.803l1.356,0.898   c3.368,2.236,7.257,2.174,8.601-0.139c0.503-0.865,0.515-1.293,0.585-21.512l0.069-20.625h6.553h6.553v11.745v11.747l0.82,0.34   c1.413,0.594,4.918,0.975,7.406,0.813c6.936-0.456,12.505-4.664,14.107-10.663c0.514-1.921,0.526-6.22,0.024-8.616   c-0.754-3.611-3.247-7.505-6.271-9.79c-6.766-5.116-18.499-6.634-27.491-3.554c-3.402,1.162-6.186,2.882-8.646,5.337   c-3.655,3.65-5.199,7.35-5.219,12.521c-0.018,4.216,0.825,7.054,2.662,9.202l0.877,1.026l-4.81,4.116   c-3.915,3.354-4.89,4.072-5.222,3.858c-0.83-0.521-3.121-3.799-4.203-6.006c-1.808-3.69-2.555-7.369-2.555-11.732   c0-4.364,0.604-6.055,1.25-8.454c0.811-2.998,2.904-7.386,4.695-9.839c5.285-7.24,12.998-11.638,23.74-13.537   c2.878-0.51,11.078-0.439,14.507,0.123c9.861,1.621,16.584,4.733,22.106,10.234c3.833,3.82,6.215,7.85,7.472,12.638   C84.389,34.778,84.564,41.01,83.857,44.442z" fill="#98050D"/>
</g>
<g>
</g>
<g>
</g>
<g>
</g>
<g>
</g>
<g>
</g>
<g>
</g>
<g>
</g>
<g>
</g>
<g>
</g>
<g>
</g>
<g>
</g>
<g>
</g>
<g>
</g>
<g>
</g>
<g>
</g>
</svg>
