<?xml version="1.0" encoding="iso-8859-1"?>
<!-- Generator: Adobe Illustrator 16.0.0, SVG Export Plug-In . SVG Version: 6.00 Build 0)  -->
<!DOCTYPE svg PUBLIC "-//W3C//DTD SVG 1.1//EN" "http://www.w3.org/Graphics/SVG/1.1/DTD/svg11.dtd">
<svg xmlns="http://www.w3.org/2000/svg" xmlns:xlink="http://www.w3.org/1999/xlink" version="1.1" id="Capa_1" x="0px" y="0px" width="512px" height="512px" viewBox="0 0 94 94" style="enable-background:new 0 0 94 94;" xml:space="preserve">
<g>
	<path d="M89,0H5C2.238,0,0,2.239,0,5v84c0,2.761,2.238,5,5,5h84c2.762,0,5-2.239,5-5V5C94,2.239,91.762,0,89,0z M33.553,64.193   l0.006-23.042c-3.25,0-5.672,0-8.596,0c0-3.734,0-7.028,0-10.763c6.494-1.85,12.098-8.752,14.162-16.066   C39.916,11.136,40,8.976,40,8.976s9.955,0,12.211,0c0,6.59,0,13.188,0,19.627c4.887,0,9.457,0,14.285,0v12.384   c-4.572,0-9.229,0-14.361,0c0,2.48,0,5.046,0,7.169c0,4.814-0.02,9.63,0.006,14.443c0,12.758,12.254,7.521,13.369,7.274   l3.527,11.649C65.986,84.756,33.553,92.645,33.553,64.193z" fill="#053F98"/>
</g>
<g>
</g>
<g>
</g>
<g>
</g>
<g>
</g>
<g>
</g>
<g>
</g>
<g>
</g>
<g>
</g>
<g>
</g>
<g>
</g>
<g>
</g>
<g>
</g>
<g>
</g>
<g>
</g>
<g>
</g>
</svg>
