<?xml version="1.0" encoding="iso-8859-1"?>
<!-- Generator: Adobe Illustrator 16.0.0, SVG Export Plug-In . SVG Version: 6.00 Build 0)  -->
<!DOCTYPE svg PUBLIC "-//W3C//DTD SVG 1.1//EN" "http://www.w3.org/Graphics/SVG/1.1/DTD/svg11.dtd">
<svg xmlns="http://www.w3.org/2000/svg" xmlns:xlink="http://www.w3.org/1999/xlink" version="1.1" id="Capa_1" x="0px" y="0px" width="512px" height="512px" viewBox="0 0 94 94" style="enable-background:new 0 0 94 94;" xml:space="preserve">
<g>
	<g>
		<path d="M41.321,69.812c-0.823,1.162-1.6,1.733-2.343,1.733c-0.495,0-0.777-0.292-0.866-0.866    c-0.035-0.121-0.035-0.572-0.035-1.439V54.188h-3.704v16.166c0,1.442,0.125,2.422,0.328,3.041c0.371,1.035,1.193,1.52,2.387,1.52    c1.361,0,2.76-0.823,4.233-2.512v2.23h3.707V54.188h-3.707V69.812z" fill="#98050D"/>
		<path d="M55.768,53.938c-1.36,0-2.631,0.744-3.83,2.218v-8.962h-3.703v27.439h3.703V72.65c1.238,1.531,2.513,2.263,3.83,2.263    c1.474,0,2.467-0.777,2.959-2.298c0.248-0.866,0.377-2.229,0.377-4.12v-8.142c0-1.937-0.127-3.289-0.377-4.11    C58.232,54.713,57.24,53.938,55.768,53.938z M55.396,68.787c0,1.847-0.541,2.759-1.61,2.759c-0.61,0-1.229-0.292-1.849-0.912    V58.173c0.619-0.61,1.237-0.901,1.849-0.901c1.069,0,1.61,0.945,1.61,2.791V68.787z" fill="#98050D"/>
		<polygon points="20.919,51.055 25.275,51.055 25.275,74.632 29.396,74.632 29.396,51.055 33.834,51.055 33.834,47.191     20.919,47.191   " fill="#98050D"/>
		<path d="M44.502,35.297c1.205,0,1.785-0.956,1.785-2.867v-8.691c0-1.912-0.58-2.864-1.785-2.864c-1.207,0-1.788,0.953-1.788,2.864    v8.691C42.714,34.342,43.295,35.297,44.502,35.297z" fill="#98050D"/>
		<path d="M67.566,53.938c-1.894,0-3.364,0.695-4.438,2.096c-0.787,1.033-1.146,2.633-1.146,4.818v7.159    c0,2.173,0.404,3.785,1.191,4.81c1.069,1.396,2.547,2.094,4.482,2.094s3.453-0.732,4.48-2.217    c0.449-0.654,0.741-1.398,0.865-2.219c0.034-0.371,0.079-1.193,0.079-2.388V67.55h-3.778c0,1.486-0.05,2.308-0.084,2.511    c-0.211,0.989-0.742,1.485-1.654,1.485c-1.271,0-1.894-0.944-1.894-2.837v-3.625h7.41v-4.232c0-2.187-0.371-3.785-1.146-4.818    C70.898,54.633,69.424,53.938,67.566,53.938z M69.378,62h-3.704v-1.893c0-1.892,0.621-2.836,1.858-2.836    c1.228,0,1.846,0.945,1.846,2.836V62z" fill="#98050D"/>
		<path d="M89,0H5C2.239,0,0,2.239,0,5v84c0,2.761,2.239,5,5,5h84c2.762,0,5-2.239,5-5V5C94,2.239,91.762,0,89,0z M53.111,17.754    h3.732v15.212c0,0.877,0,1.333,0.047,1.456c0.082,0.579,0.375,0.875,0.877,0.875c0.748,0,1.533-0.58,2.363-1.752V17.754h3.745    v20.661h-3.745v-2.253c-1.488,1.708-2.91,2.538-4.275,2.538c-1.207,0-2.037-0.489-2.41-1.536    c-0.207-0.626-0.334-1.613-0.334-3.072V17.754z M38.971,24.491c0-2.208,0.375-3.824,1.171-4.867c1.037-1.414,2.493-2.12,4.36-2.12    c1.873,0,3.332,0.706,4.367,2.12c0.785,1.043,1.16,2.659,1.16,4.867v7.234c0,2.196-0.375,3.826-1.16,4.859    c-1.035,1.41-2.494,2.116-4.367,2.116c-1.867,0-3.323-0.706-4.36-2.116c-0.796-1.033-1.171-2.663-1.171-4.859V24.491z     M28.959,10.689l2.946,10.888l2.832-10.888h4.198l-4.994,16.497v11.229h-4.15V27.186c-0.376-1.988-1.209-4.903-2.539-8.771    c-0.876-2.573-1.786-5.154-2.661-7.725L28.959,10.689L28.959,10.689z M76.579,76.438c-0.751,3.26-3.418,5.664-6.626,6.023    c-7.602,0.85-15.294,0.854-22.955,0.85c-7.662,0.004-15.356,0-22.956-0.85c-3.21-0.359-5.875-2.764-6.626-6.023    c-1.068-4.643-1.068-9.709-1.068-14.49c0-4.78,0.014-9.85,1.082-14.492c0.75-3.259,3.416-5.665,6.625-6.023    c7.6-0.849,15.295-0.853,22.955-0.849c7.659-0.004,15.354,0,22.955,0.849c3.209,0.358,5.877,2.764,6.627,6.023    c1.067,4.643,1.061,9.712,1.061,14.492C77.652,66.729,77.646,71.795,76.579,76.438z" fill="#98050D"/>
	</g>
</g>
<g>
</g>
<g>
</g>
<g>
</g>
<g>
</g>
<g>
</g>
<g>
</g>
<g>
</g>
<g>
</g>
<g>
</g>
<g>
</g>
<g>
</g>
<g>
</g>
<g>
</g>
<g>
</g>
<g>
</g>
</svg>
